<svg id="arrow-right" xmlns="http://www.w3.org/2000/svg" width="30.676" height="17.897" viewBox="0 0 30.676 17.897">
  <path id="Path_2874" data-name="Path 2874" d="M22.874,10.5a1.278,1.278,0,0,1,1.81,0l7.668,7.668a1.278,1.278,0,0,1,0,1.81l-7.668,7.668a1.28,1.28,0,1,1-1.81-1.81l6.765-6.764-6.766-6.764a1.278,1.278,0,0,1,0-1.81Z" transform="translate(-2.051 -10.123)" fill="#414141"/>
  <path id="Path_2875" data-name="Path 2875" d="M4.5,18.153a1.278,1.278,0,0,1,1.278-1.278H32.617a1.278,1.278,0,1,1,0,2.556H5.778A1.278,1.278,0,0,1,4.5,18.153Z" transform="translate(-4.5 -9.205)" fill="#414141"/>
</svg>
