<svg xmlns="http://www.w3.org/2000/svg" width="154" height="27.879" viewBox="0 0 154 27.879">
  <g id="Symbols" transform="translate(0 -16.263)">
    <g id="Menu---Final" transform="translate(0 16.263)">
      <g id="FSSC_22000">
        <path id="Path" d="M59.621,10v2.79H52.856V16.2h6.765v2.79H52.856v6.278H49V10Z" transform="translate(-16.474 -3.362)" fill="#fff"/>
        <path id="Path-2" data-name="Path" d="M79.244,10.209v3.028a13.2,13.2,0,0,0-4.952-1.389,3.44,3.44,0,0,0-1.671.352,1.049,1.049,0,0,0-.616.93,1.132,1.132,0,0,0,.445.845,8.061,8.061,0,0,0,2.179,1.032A23.768,23.768,0,0,1,77.4,16.18a5.405,5.405,0,0,1,1.791,1.531,4.026,4.026,0,0,1,.753,2.5,4.113,4.113,0,0,1-1.649,3.4,6.875,6.875,0,0,1-4.364,1.31,11.578,11.578,0,0,1-5.631-1.5v-3.34A15.553,15.553,0,0,0,71.08,21.6a6.882,6.882,0,0,0,2.556.476q2.282,0,2.282-1.429a1.273,1.273,0,0,0-.456-.924,7.342,7.342,0,0,0-2.208-1.055,23.122,23.122,0,0,1-2.772-1.134,5.222,5.222,0,0,1-1.763-1.525,4.087,4.087,0,0,1-.713-2.523A3.854,3.854,0,0,1,69.62,10.26a6.99,6.99,0,0,1,4.313-1.253A13.371,13.371,0,0,1,79.244,10.209Z" transform="translate(-22.862 -3.026)" fill="#fff"/>
        <path id="Path-3" data-name="Path" d="M99.261,10.2v3.036a13.2,13.2,0,0,0-4.952-1.393,3.4,3.4,0,0,0-1.673.352,1.046,1.046,0,0,0-.623.932,1.135,1.135,0,0,0,.445.847,8.249,8.249,0,0,0,2.159,1.035,22.938,22.938,0,0,1,2.775,1.177,5.414,5.414,0,0,1,1.794,1.535,4.048,4.048,0,0,1,.759,2.507,4.138,4.138,0,0,1-1.65,3.411,6.917,6.917,0,0,1-4.346,1.285,11.542,11.542,0,0,1-5.614-1.478V20.1A15.535,15.535,0,0,0,91.1,21.62a6.916,6.916,0,0,0,2.564.478c1.531,0,2.284-.478,2.284-1.433a1.26,1.26,0,0,0-.457-.927,7.274,7.274,0,0,0-2.21-1.058,22.966,22.966,0,0,1-2.77-1.137,5.2,5.2,0,0,1-1.77-1.529A4.1,4.1,0,0,1,88,13.478a3.872,3.872,0,0,1,1.622-3.235,6.979,6.979,0,0,1,4.34-1.234A13.364,13.364,0,0,1,99.261,10.2Z" transform="translate(-29.586 -3.026)" fill="#fff"/>
        <path id="Path-4" data-name="Path" d="M123.267,19.971V23.38a13,13,0,0,1-6.151,1.551,9.431,9.431,0,0,1-6.643-2.273A7.362,7.362,0,0,1,108,17.022a7.361,7.361,0,0,1,2.609-5.682,9.8,9.8,0,0,1,6.809-2.335,10.974,10.974,0,0,1,5.671,1.369V13.8A11.091,11.091,0,0,0,117.7,12.2a6.128,6.128,0,0,0-4.1,1.33,4.221,4.221,0,0,0-1.585,3.409,4.322,4.322,0,0,0,1.562,3.409,5.914,5.914,0,0,0,4.005,1.347,8.54,8.54,0,0,0,2.329-.318,22.415,22.415,0,0,0,3.353-1.409Z" transform="translate(-36.31 -3.026)" fill="#fff"/>
        <path id="Path-5" data-name="Path" d="M150.009,23.677a.614.614,0,0,1,.434.175.565.565,0,0,1,.177.436v.4a.6.6,0,0,1-.611.577h-9.4a.573.573,0,0,1-.433-.181A.62.62,0,0,1,140,24.65a4.626,4.626,0,0,1,.12-1,3.96,3.96,0,0,1,.325-.883,8.6,8.6,0,0,1,.485-.736,6.59,6.59,0,0,1,.634-.719,9.836,9.836,0,0,1,.736-.662c.257-.209.513-.407.77-.6l.793-.566c.263-.187.525-.362.788-.532.542-.357,1.044-.719,1.512-1.092s.913-.758,1.336-1.132a3.787,3.787,0,0,0,.81-1.132,3.368,3.368,0,0,0,.3-1.279,3.064,3.064,0,0,0-.228-1.16,2.212,2.212,0,0,0-.622-.843,3.908,3.908,0,0,0-2.414-.707,4.6,4.6,0,0,0-1.58.266,2.482,2.482,0,0,0-1.067.73,4.36,4.36,0,0,0-.828,2.778.564.564,0,0,1-.171.43.606.606,0,0,1-.433.17h-.422a.609.609,0,0,1-.434-.17.563.563,0,0,1-.171-.43q.034-5.313,5.107-5.381a6.091,6.091,0,0,1,1.866.266,5.309,5.309,0,0,1,1.552.775,3.98,3.98,0,0,1,1.478,3.3,4.7,4.7,0,0,1-.411,1.805,5.581,5.581,0,0,1-1.055,1.567,18.22,18.22,0,0,1-1.4,1.3,14.6,14.6,0,0,1-1.592,1.16h0a34.642,34.642,0,0,0-2.853,2.122h0a3.969,3.969,0,0,0-1.113,1.386Z" transform="translate(-47.069 -3.362)" fill="#fff"/>
        <path id="Path-6" data-name="Path" d="M168.988,23.693a.625.625,0,0,1,.439.176.564.564,0,0,1,.193.391v.4a.563.563,0,0,1-.177.43.571.571,0,0,1-.439.175h-9.4a.572.572,0,0,1-.427-.181A.626.626,0,0,1,159,24.65a4.994,4.994,0,0,1,.125-1,4,4,0,0,1,.325-.883,8.583,8.583,0,0,1,.485-.736,6.557,6.557,0,0,1,.632-.719,8.08,8.08,0,0,1,.736-.662c.25-.209.507-.408.769-.6l.787-.566c.262-.187.524-.362.786-.532a14.93,14.93,0,0,0,1.51-1.092c.461-.374.911-.759,1.339-1.132a3.9,3.9,0,0,0,.809-1.132,3.379,3.379,0,0,0,.291-1.279,2.964,2.964,0,0,0-.228-1.16,2.153,2.153,0,0,0-.592-.838,3.9,3.9,0,0,0-2.41-.708,4.584,4.584,0,0,0-1.584.266,2.475,2.475,0,0,0-1.065.73,4.4,4.4,0,0,0-.826,2.779.566.566,0,0,1-.171.43.573.573,0,0,1-.427.17h-.427a.573.573,0,0,1-.427-.17.566.566,0,0,1-.171-.43q0-5.315,5.1-5.383a6.123,6.123,0,0,1,1.863.266,5.3,5.3,0,0,1,1.549.776,3.952,3.952,0,0,1,1.47,3.3,4.609,4.609,0,0,1-.4,1.806,5.733,5.733,0,0,1-1.054,1.568c-.433.441-.9.872-1.4,1.3a14.634,14.634,0,0,1-1.59,1.16h0a33.752,33.752,0,0,0-2.848,2.123h0a3.876,3.876,0,0,0-1.134,1.4Z" transform="translate(-53.457 -3.362)" fill="#fff"/>
        <path id="Shape" d="M187.946,17.639a11.106,11.106,0,0,1-.3,2.687,8.919,8.919,0,0,1-.921,2.348,4.756,4.756,0,0,1-1.877,1.888,6.179,6.179,0,0,1-2.9.705,6.07,6.07,0,0,1-2.838-.705,4.794,4.794,0,0,1-1.871-1.871,9.246,9.246,0,0,1-.938-2.365A10.322,10.322,0,0,1,176,17.645a10.406,10.406,0,0,1,.307-2.693,9.365,9.365,0,0,1,.938-2.382,4.686,4.686,0,0,1,1.871-1.887,6.133,6.133,0,0,1,2.85-.683,6.206,6.206,0,0,1,2.9.683,4.763,4.763,0,0,1,1.883,1.849,9.271,9.271,0,0,1,.921,2.387A11.3,11.3,0,0,1,187.946,17.639Zm-1.646,0a6.82,6.82,0,0,0-.064-1.11c-.064-.4-.092-.766-.151-1.11A8.067,8.067,0,0,0,185.8,14.4a5.284,5.284,0,0,0-.44-.927,3.58,3.58,0,0,0-3.4-1.865,4.008,4.008,0,0,0-2.056.511h0a4.181,4.181,0,0,0-.735.594,4.012,4.012,0,0,0-.579.772,4.548,4.548,0,0,0-.428.91,5.569,5.569,0,0,0-.261,1.038,9.711,9.711,0,0,0,0,4.369,5.681,5.681,0,0,0,.266,1.033,5.885,5.885,0,0,0,.435.949,3.484,3.484,0,0,0,1.292,1.349,3.172,3.172,0,0,0,.933.411,4.512,4.512,0,0,0,1.158.128,4.66,4.66,0,0,0,1.159-.128,2.8,2.8,0,0,0,.909-.411,3.271,3.271,0,0,0,1.338-1.321,4.794,4.794,0,0,0,.445-.949,9.649,9.649,0,0,0,.284-1.033c.058-.361.11-.722.151-1.11a9.558,9.558,0,0,0,.035-1.077Z" transform="translate(-59.172 -3.362)" fill="#fff"/>
        <path id="Shape-2" data-name="Shape" d="M206.945,17.639a10.536,10.536,0,0,1-.3,2.687,9.1,9.1,0,0,1-.915,2.348,4.792,4.792,0,0,1-1.877,1.888,6.183,6.183,0,0,1-2.9.705,6.059,6.059,0,0,1-2.838-.705,4.79,4.79,0,0,1-1.871-1.871,9.457,9.457,0,0,1-.945-2.365A10.87,10.87,0,0,1,195,17.645a10.959,10.959,0,0,1,.307-2.693,9.58,9.58,0,0,1,.945-2.382,4.687,4.687,0,0,1,1.871-1.888A6.124,6.124,0,0,1,200.967,10a6.213,6.213,0,0,1,2.9.683,4.8,4.8,0,0,1,1.883,1.849,9.484,9.484,0,0,1,.915,2.387,10.729,10.729,0,0,1,.283,2.72Zm-1.645,0a7.518,7.518,0,0,0-.058-1.11c-.058-.4-.093-.766-.157-1.11A7.217,7.217,0,0,0,204.8,14.4a5.272,5.272,0,0,0-.435-.927,3.6,3.6,0,0,0-3.406-1.865,4,4,0,0,0-2.05.511h0a3.973,3.973,0,0,0-.736.594,3.753,3.753,0,0,0-.579.772,4.9,4.9,0,0,0-.435.91,6.688,6.688,0,0,0-.26,1.038,9.692,9.692,0,0,0,0,4.369,6.121,6.121,0,0,0,.266,1.033,5.958,5.958,0,0,0,.44.949,3.484,3.484,0,0,0,1.292,1.349,3.118,3.118,0,0,0,.933.411,4.464,4.464,0,0,0,1.13.128,4.62,4.62,0,0,0,1.158-.128,2.825,2.825,0,0,0,.915-.411,3.723,3.723,0,0,0,.753-.555,4.007,4.007,0,0,0,.579-.766,4.711,4.711,0,0,0,.44-.949,8.361,8.361,0,0,0,.284-1.033c.064-.361.116-.722.157-1.11a9.572,9.572,0,0,0,.058-1.077Z" transform="translate(-65.56 -3.362)" fill="#fff"/>
        <path id="Shape-3" data-name="Shape" d="M225.946,17.639a11.1,11.1,0,0,1-.3,2.687,8.9,8.9,0,0,1-.922,2.348,4.752,4.752,0,0,1-1.879,1.887,6.171,6.171,0,0,1-2.9.705,6.081,6.081,0,0,1-2.842-.705,4.824,4.824,0,0,1-1.861-1.876,9.224,9.224,0,0,1-.939-2.365A10.35,10.35,0,0,1,214,17.639a10.434,10.434,0,0,1,.307-2.692,9.342,9.342,0,0,1,.939-2.382,4.725,4.725,0,0,1,1.861-1.882A6.144,6.144,0,0,1,219.962,10a6.22,6.22,0,0,1,2.9.683,4.768,4.768,0,0,1,1.884,1.849,9.247,9.247,0,0,1,.921,2.387,11.267,11.267,0,0,1,.279,2.72Zm-1.647,0a6.823,6.823,0,0,0-.064-1.11c-.064-.4-.093-.766-.151-1.11a8.178,8.178,0,0,0-.29-1.022,5.735,5.735,0,0,0-.429-.938,3.6,3.6,0,0,0-3.41-1.865,4.015,4.015,0,0,0-2.058.511h0a4.183,4.183,0,0,0-.736.594,3.984,3.984,0,0,0-.58.772,4.551,4.551,0,0,0-.429.91,5.566,5.566,0,0,0-.261,1.038,9.692,9.692,0,0,0,0,4.369,5.631,5.631,0,0,0,.267,1.033,5.882,5.882,0,0,0,.435.949,3.487,3.487,0,0,0,1.293,1.349,3.182,3.182,0,0,0,.933.411,4.522,4.522,0,0,0,1.16.128,4.656,4.656,0,0,0,1.16-.128,2.809,2.809,0,0,0,.911-.411,3.751,3.751,0,0,0,.759-.555,3.972,3.972,0,0,0,.557-.777,5.078,5.078,0,0,0,.44-.949,9.487,9.487,0,0,0,.284-1.033c.058-.361.11-.722.151-1.11A9.658,9.658,0,0,0,224.3,17.639Z" transform="translate(-71.948 -3.362)" fill="#fff"/>
        <path id="Path-7" data-name="Path" d="M23.2,4.135A13.751,13.751,0,0,0,6.265,1.98C-.18,5.78-1.78,14.344,2.06,20.518c.09.146.561,0,.516-.179A13.4,13.4,0,0,1,4.435,8.585,13,13,0,0,1,22.742,4.375C22.865,4.482,23.359,4.291,23.2,4.135Z" transform="translate(0 0)" fill="#fff"/>
        <path id="Path-8" data-name="Path" d="M27.013,2.769c-1.988-1.212-4.623-.779-6.7-.142H20.24C15.249,4.441,9.593,9.3,10.023,15.209c0,.159.5,0,.53-.114a15.139,15.139,0,0,1,7.621-8.646c3.434-1.82,9.452-2.423,10.307,2.634,0,.165.5,0,.53-.114C29.564,6.54,29.257,4.156,27.013,2.769Z" transform="translate(-3.362 -0.672)" fill="#fff"/>
        <path id="Path-9" data-name="Path" d="M26.73,13.045c-.384-.447-.5-.558-.907-.988-.132-.14-.631,0-.493.207a11.291,11.291,0,0,1-.666,13.012,11.618,11.618,0,0,1-7.46,4.188c-3.053.48-6.037-.653-8.745-1.9-.166-.078-.608.056-.407.274,4.08,4.468,11.293,5.545,16.309,1.837a11.713,11.713,0,0,0,4.767-7.829A11.535,11.535,0,0,0,26.73,13.045Z" transform="translate(-2.69 -4.034)" fill="#fff"/>
        <path id="Path-10" data-name="Path" d="M23.139,20.1c-.028-.17-.517-.108-.568.045a13.532,13.532,0,0,1-4.735,7.527c-2.964,2.575-9.652,5.054-11.2-.181-.051-.187-.528-.1-.568.079-.676,5.348,3.974,6.644,8.261,5.093,4.542-1.63,8.857-6.446,8.931-11.38a5.341,5.341,0,0,0-.119-1.183Z" transform="translate(-2.017 -6.724)" fill="#fff"/>
      </g>
    </g>
  </g>
</svg>
