<svg id="Symbols" xmlns="http://www.w3.org/2000/svg" width="232" height="42" viewBox="0 0 232 42">
  <g id="Menu---Final" transform="translate(-135 -64)">
    <g id="FSSC_22000" transform="translate(135 64)">
      <path id="Path" d="M65,10v4.2H54.809V19.34H65v4.2H54.809V33H49V10Z" fill="#2a8961"/>
      <path id="Path-2" data-name="Path" d="M84.938,10.821v4.562a19.891,19.891,0,0,0-7.46-2.093,5.183,5.183,0,0,0-2.518.53,1.58,1.58,0,0,0-.928,1.4,1.706,1.706,0,0,0,.67,1.273,12.143,12.143,0,0,0,3.283,1.555,35.808,35.808,0,0,1,4.177,1.768,8.143,8.143,0,0,1,2.7,2.306A6.064,6.064,0,0,1,86,25.89a6.2,6.2,0,0,1-2.484,5.125,10.357,10.357,0,0,1-6.575,1.973,17.442,17.442,0,0,1-8.482-2.264V25.694a23.431,23.431,0,0,0,4.185,2.289,10.368,10.368,0,0,0,3.85.718q3.438,0,3.438-2.153a1.918,1.918,0,0,0-.688-1.392,11.061,11.061,0,0,0-3.326-1.589,34.834,34.834,0,0,1-4.177-1.708,7.866,7.866,0,0,1-2.656-2.3,6.157,6.157,0,0,1-1.074-3.8A5.806,5.806,0,0,1,70.44,10.9a10.531,10.531,0,0,1,6.5-1.888A20.143,20.143,0,0,1,84.938,10.821Z" fill="#2a8961"/>
      <path id="Path-3" data-name="Path" d="M104.964,10.8v4.574a19.886,19.886,0,0,0-7.46-2.1,5.121,5.121,0,0,0-2.521.531,1.576,1.576,0,0,0-.938,1.4,1.711,1.711,0,0,0,.671,1.276,12.428,12.428,0,0,0,3.252,1.559,34.555,34.555,0,0,1,4.181,1.773,8.157,8.157,0,0,1,2.7,2.313A6.1,6.1,0,0,1,106,25.914a6.233,6.233,0,0,1-2.486,5.139,10.42,10.42,0,0,1-6.548,1.936A17.389,17.389,0,0,1,88.5,30.762V25.717a23.4,23.4,0,0,0,4.173,2.3,10.419,10.419,0,0,0,3.863.719c2.306,0,3.441-.719,3.441-2.158a1.9,1.9,0,0,0-.688-1.4,10.958,10.958,0,0,0-3.33-1.593,34.6,34.6,0,0,1-4.173-1.713,7.83,7.83,0,0,1-2.667-2.3,6.182,6.182,0,0,1-1.118-3.82,5.833,5.833,0,0,1,2.443-4.874,10.513,10.513,0,0,1,6.539-1.859A20.133,20.133,0,0,1,104.964,10.8Z" fill="#2a8961"/>
      <path id="Path-4" data-name="Path" d="M131,25.528v5.135A19.588,19.588,0,0,1,121.734,33q-6.285,0-10.008-3.424A11.091,11.091,0,0,1,108,21.086a11.09,11.09,0,0,1,3.931-8.559A14.76,14.76,0,0,1,122.19,9.008a16.532,16.532,0,0,1,8.543,2.063v5.153a16.709,16.709,0,0,0-8.12-2.4,9.232,9.232,0,0,0-6.172,2,6.358,6.358,0,0,0-2.388,5.135,6.512,6.512,0,0,0,2.353,5.135,8.91,8.91,0,0,0,6.034,2.029,12.866,12.866,0,0,0,3.509-.479A33.768,33.768,0,0,0,131,25.528Z" fill="#2a8961"/>
      <path id="Path-5" data-name="Path" d="M155.079,30.6a.925.925,0,0,1,.654.264.851.851,0,0,1,.266.656v.605a.907.907,0,0,1-.92.869H140.911a.863.863,0,0,1-.653-.273A.934.934,0,0,1,140,32.07a6.971,6.971,0,0,1,.181-1.509,5.967,5.967,0,0,1,.49-1.33,12.962,12.962,0,0,1,.73-1.108,9.93,9.93,0,0,1,.955-1.083,14.827,14.827,0,0,1,1.109-1c.387-.315.773-.614,1.16-.9l1.2-.852c.4-.281.791-.546,1.187-.8.816-.537,1.573-1.083,2.278-1.645s1.375-1.142,2.012-1.7a5.706,5.706,0,0,0,1.22-1.7,5.073,5.073,0,0,0,.447-1.927,4.617,4.617,0,0,0-.344-1.747,3.333,3.333,0,0,0-.937-1.27,5.888,5.888,0,0,0-3.636-1.066,6.923,6.923,0,0,0-2.381.4,3.739,3.739,0,0,0-1.608,1.1,6.569,6.569,0,0,0-1.247,4.185.849.849,0,0,1-.258.648.913.913,0,0,1-.653.256h-.636a.917.917,0,0,1-.654-.256.848.848,0,0,1-.257-.648q.051-8,7.694-8.107a9.176,9.176,0,0,1,2.811.4,8,8,0,0,1,2.338,1.168,6,6,0,0,1,2.227,4.97,7.079,7.079,0,0,1-.619,2.719,8.407,8.407,0,0,1-1.59,2.361,27.45,27.45,0,0,1-2.115,1.952,21.992,21.992,0,0,1-2.4,1.748h0a52.185,52.185,0,0,0-4.3,3.2h0a5.979,5.979,0,0,0-1.677,2.088Z" fill="#808285"/>
      <path id="Path-6" data-name="Path" d="M174.047,30.628a.941.941,0,0,1,.661.264.849.849,0,0,1,.291.588v.606a.849.849,0,0,1-.266.648.86.86,0,0,1-.661.264H159.91a.861.861,0,0,1-.644-.273A.943.943,0,0,1,159,32.07a7.524,7.524,0,0,1,.189-1.509,6.018,6.018,0,0,1,.489-1.33,12.932,12.932,0,0,1,.73-1.108,9.879,9.879,0,0,1,.952-1.083,12.169,12.169,0,0,1,1.108-1c.377-.316.764-.614,1.158-.9l1.185-.853c.395-.281.79-.546,1.184-.8a22.487,22.487,0,0,0,2.275-1.646c.695-.563,1.373-1.143,2.017-1.705a5.868,5.868,0,0,0,1.219-1.705,5.09,5.09,0,0,0,.438-1.927,4.465,4.465,0,0,0-.344-1.748,3.244,3.244,0,0,0-.892-1.262,5.874,5.874,0,0,0-3.631-1.066,6.905,6.905,0,0,0-2.386.4,3.729,3.729,0,0,0-1.6,1.1,6.63,6.63,0,0,0-1.245,4.187.852.852,0,0,1-.257.648.863.863,0,0,1-.644.256H160.3a.863.863,0,0,1-.644-.256.852.852,0,0,1-.257-.648q0-8.007,7.682-8.11a9.225,9.225,0,0,1,2.807.4,7.988,7.988,0,0,1,2.334,1.168,5.954,5.954,0,0,1,2.215,4.971,6.944,6.944,0,0,1-.609,2.72,8.637,8.637,0,0,1-1.588,2.362c-.653.665-1.357,1.313-2.112,1.953a22.047,22.047,0,0,1-2.395,1.748h0a50.844,50.844,0,0,0-4.291,3.2h0a5.839,5.839,0,0,0-1.708,2.106Z" fill="#808285"/>
      <path id="Shape" d="M194,21.509a16.728,16.728,0,0,1-.445,4.048,13.436,13.436,0,0,1-1.388,3.538,7.165,7.165,0,0,1-2.827,2.844A9.309,9.309,0,0,1,184.973,33a9.144,9.144,0,0,1-4.276-1.062,7.223,7.223,0,0,1-2.819-2.818,13.928,13.928,0,0,1-1.413-3.563,15.55,15.55,0,0,1-.463-4.04,15.678,15.678,0,0,1,.463-4.056,14.108,14.108,0,0,1,1.413-3.588,7.06,7.06,0,0,1,2.819-2.844A9.24,9.24,0,0,1,184.991,10a9.35,9.35,0,0,1,4.363,1.029,7.175,7.175,0,0,1,2.836,2.785,13.967,13.967,0,0,1,1.388,3.6A17.026,17.026,0,0,1,194,21.509Zm-2.479,0a10.276,10.276,0,0,0-.1-1.673c-.1-.6-.139-1.154-.227-1.673a12.153,12.153,0,0,0-.436-1.539,7.961,7.961,0,0,0-.663-1.4q-1.422-2.735-5.123-2.81a6.038,6.038,0,0,0-3.1.769h0a6.3,6.3,0,0,0-1.108.895,6.044,6.044,0,0,0-.873,1.162,6.853,6.853,0,0,0-.645,1.372,8.388,8.388,0,0,0-.393,1.564,14.628,14.628,0,0,0,0,6.582,8.555,8.555,0,0,0,.4,1.556,8.866,8.866,0,0,0,.655,1.43,5.249,5.249,0,0,0,1.946,2.032,4.779,4.779,0,0,0,1.4.619,6.8,6.8,0,0,0,1.745.192,7.02,7.02,0,0,0,1.746-.192,4.221,4.221,0,0,0,1.37-.619,4.928,4.928,0,0,0,2.016-1.991,7.223,7.223,0,0,0,.671-1.43,14.531,14.531,0,0,0,.428-1.556c.087-.544.166-1.087.227-1.673a14.4,14.4,0,0,0,.052-1.622Z" fill="#808285"/>
      <path id="Shape-2" data-name="Shape" d="M212.995,21.508a15.872,15.872,0,0,1-.445,4.048,13.706,13.706,0,0,1-1.379,3.538,7.219,7.219,0,0,1-2.827,2.844A9.315,9.315,0,0,1,203.981,33a9.128,9.128,0,0,1-4.276-1.062,7.216,7.216,0,0,1-2.819-2.818,14.246,14.246,0,0,1-1.423-3.563,16.374,16.374,0,0,1-.462-4.04,16.508,16.508,0,0,1,.462-4.056,14.431,14.431,0,0,1,1.423-3.588,7.061,7.061,0,0,1,2.819-2.844A9.226,9.226,0,0,1,203.989,10a9.36,9.36,0,0,1,4.364,1.029,7.238,7.238,0,0,1,2.836,2.785,14.287,14.287,0,0,1,1.379,3.6,16.161,16.161,0,0,1,.427,4.1Zm-2.478,0a11.326,11.326,0,0,0-.087-1.673c-.088-.6-.14-1.154-.236-1.673a10.871,10.871,0,0,0-.436-1.539,7.939,7.939,0,0,0-.655-1.4q-1.44-2.735-5.131-2.81a6.027,6.027,0,0,0-3.089.769h0a5.986,5.986,0,0,0-1.109.895,5.655,5.655,0,0,0-.872,1.162,7.383,7.383,0,0,0-.655,1.372,10.073,10.073,0,0,0-.392,1.564,14.6,14.6,0,0,0,0,6.582,9.219,9.219,0,0,0,.4,1.556,8.976,8.976,0,0,0,.663,1.43,5.248,5.248,0,0,0,1.946,2.032,4.7,4.7,0,0,0,1.4.619,6.725,6.725,0,0,0,1.7.192,6.96,6.96,0,0,0,1.745-.192,4.256,4.256,0,0,0,1.379-.619,5.608,5.608,0,0,0,1.135-.836,6.035,6.035,0,0,0,.872-1.154,7.094,7.094,0,0,0,.663-1.43,12.589,12.589,0,0,0,.428-1.556c.1-.544.175-1.087.236-1.673a14.421,14.421,0,0,0,.087-1.623Z" fill="#808285"/>
      <path id="Shape-3" data-name="Shape" d="M232,21.508a16.729,16.729,0,0,1-.446,4.048,13.4,13.4,0,0,1-1.389,3.538,7.159,7.159,0,0,1-2.83,2.844A9.3,9.3,0,0,1,222.965,33a9.161,9.161,0,0,1-4.281-1.062,7.268,7.268,0,0,1-2.8-2.827,13.9,13.9,0,0,1-1.415-3.563,15.593,15.593,0,0,1-.463-4.04,15.72,15.72,0,0,1,.463-4.056,14.074,14.074,0,0,1,1.415-3.588,7.118,7.118,0,0,1,2.8-2.835,9.256,9.256,0,0,1,4.3-1.029,9.37,9.37,0,0,1,4.368,1.029,7.183,7.183,0,0,1,2.839,2.785,13.931,13.931,0,0,1,1.388,3.6,16.975,16.975,0,0,1,.42,4.1Zm-2.481,0a10.277,10.277,0,0,0-.1-1.673c-.1-.6-.14-1.154-.227-1.673a12.325,12.325,0,0,0-.437-1.539,8.641,8.641,0,0,0-.646-1.413q-1.441-2.735-5.137-2.81a6.049,6.049,0,0,0-3.1.769h0a6.3,6.3,0,0,0-1.109.895,6,6,0,0,0-.874,1.163,6.856,6.856,0,0,0-.646,1.372,8.385,8.385,0,0,0-.393,1.564,14.6,14.6,0,0,0,0,6.582,8.482,8.482,0,0,0,.4,1.556,8.861,8.861,0,0,0,.655,1.43,5.253,5.253,0,0,0,1.948,2.032,4.794,4.794,0,0,0,1.406.619,6.813,6.813,0,0,0,1.747.192,7.014,7.014,0,0,0,1.747-.192,4.232,4.232,0,0,0,1.372-.619,5.651,5.651,0,0,0,1.144-.836,5.983,5.983,0,0,0,.839-1.171,7.649,7.649,0,0,0,.663-1.43,14.3,14.3,0,0,0,.428-1.556c.088-.544.166-1.087.228-1.673A14.55,14.55,0,0,0,229.516,21.508Z" fill="#808285"/>
      <path id="Path-7" data-name="Path" d="M34.954,6.229A20.716,20.716,0,0,0,9.438,2.983C-.271,8.708-2.682,21.61,3.1,30.91c.135.219.846,0,.778-.27a20.188,20.188,0,0,1,2.8-17.708A19.587,19.587,0,0,1,34.26,6.592C34.446,6.752,35.191,6.465,34.954,6.229Z" fill="#2a8961"/>
      <path id="Path-8" data-name="Path" d="M35.63,3.158c-2.994-1.825-6.964-1.174-10.093-.214h-.109C17.907,5.677,9.387,13,10.035,21.9c0,.24.749,0,.8-.171C12.6,15.926,17.142,11.444,22.315,8.7s14.24-3.651,15.527,3.968c0,.248.757,0,.8-.171C39.473,8.839,39.011,5.249,35.63,3.158Z" fill="#aad0c0"/>
      <path id="Path-9" data-name="Path" d="M36.217,13.574c-.579-.673-.752-.841-1.366-1.489-.2-.21-.951,0-.743.311a17.009,17.009,0,0,1-1,19.6,17.5,17.5,0,0,1-11.239,6.31c-4.6.724-9.094-.984-13.175-2.869-.251-.118-.916.084-.614.412,6.147,6.731,17.013,8.354,24.569,2.768a17.645,17.645,0,0,0,7.181-11.795A17.378,17.378,0,0,0,36.217,13.574Z" fill="#808285"/>
      <path id="Path-10" data-name="Path" d="M31.82,20.153c-.043-.256-.778-.162-.855.068-.855,4.544-3.678,8.329-7.134,11.339-4.465,3.879-14.541,7.613-16.876-.273-.077-.281-.8-.153-.855.119-1.018,8.056,5.988,10.009,12.446,7.673C25.388,36.624,31.888,29.369,32,21.935a8.046,8.046,0,0,0-.18-1.782Z" fill="#bcbec0"/>
    </g>
  </g>
</svg>
